<?xml version="1.0" encoding="UTF-8" standalone="no"?>
<svg
   xmlns:dc="http://purl.org/dc/elements/1.1/"
   xmlns:cc="http://creativecommons.org/ns#"
   xmlns:rdf="http://www.w3.org/1999/02/22-rdf-syntax-ns#"
   xmlns:svg="http://www.w3.org/2000/svg"
   xmlns="http://www.w3.org/2000/svg"
   xmlns:sodipodi="http://sodipodi.sourceforge.net/DTD/sodipodi-0.dtd"
   xmlns:inkscape="http://www.inkscape.org/namespaces/inkscape"
   fill="#000000"
   height="800px"
   width="800px"
   version="1.1"
   id="Capa_1"
   viewBox="0 0 60 60"
   xml:space="preserve"
   sodipodi:docname="battery-charging-white.svg"
   inkscape:version="1.0.1 (3bc2e813f5, 2020-09-07)"><metadata
   id="metadata13"><rdf:RDF><cc:Work
       rdf:about=""><dc:format>image/svg+xml</dc:format><dc:type
         rdf:resource="http://purl.org/dc/dcmitype/StillImage" /><dc:title /></cc:Work></rdf:RDF></metadata><defs
   id="defs11" /><sodipodi:namedview
   pagecolor="#ffffff"
   bordercolor="#666666"
   borderopacity="1"
   objecttolerance="10"
   gridtolerance="10"
   guidetolerance="10"
   inkscape:pageopacity="0"
   inkscape:pageshadow="2"
   inkscape:window-width="1920"
   inkscape:window-height="1001"
   id="namedview9"
   showgrid="false"
   inkscape:zoom="1.0375"
   inkscape:cx="400"
   inkscape:cy="400"
   inkscape:window-x="-9"
   inkscape:window-y="-9"
   inkscape:window-maximized="1"
   inkscape:current-layer="Capa_1"
   inkscape:document-rotation="0" />
<g
   id="g6"
   transform="rotate(90,30,30)">
	<path
   d="M 42.536,4 H 36 V 0 H 24 V 4 H 17.464 C 15.554,4 14,5.554 14,7.464 V 56.536 C 14,58.446 15.554,60 17.464,60 H 42.535 C 44.446,60 46,58.446 46,56.536 V 7.464 C 46,5.554 44.446,4 42.536,4 Z M 44,56.536 C 44,57.344 43.343,58 42.536,58 H 17.464 C 16.657,58 16,57.344 16,56.536 V 7.464 C 16,6.656 16.657,6 17.464,6 H 24 36 42.536 C 43.343,6 44,6.656 44,7.464 Z"
   id="path2"
   style="fill:#ffffff" />
	<path
   d="M 37,29 H 34 V 17.108 c 0.013,-0.26 -0.069,-0.515 -0.236,-0.72 -0.381,-0.467 -1.264,-0.463 -1.642,0.004 -0.026,0.032 -0.05,0.066 -0.072,0.103 l -9.9,15.979 c -0.191,0.309 -0.2,0.696 -0.023,1.013 C 22.303,33.804 22.637,34 23,34 h 4 l 0.002,12.929 h 0.001 c 0.001,0.235 0.077,0.479 0.215,0.657 0.189,0.247 0.529,0.414 0.84,0.414 0.305,0 0.636,-0.16 0.825,-0.398 0.04,-0.05 0.074,-0.103 0.104,-0.159 l 8.899,-16.979 c 0.163,-0.31 0.151,-0.682 -0.03,-0.981 C 37.675,29.184 37.35,29 37,29 Z"
   id="path4"
   style="fill:#ffffff" />
</g>
</svg>
