<?xml version="1.0" encoding="UTF-8" standalone="no"?>
<svg
   xmlns:dc="http://purl.org/dc/elements/1.1/"
   xmlns:cc="http://creativecommons.org/ns#"
   xmlns:rdf="http://www.w3.org/1999/02/22-rdf-syntax-ns#"
   xmlns:svg="http://www.w3.org/2000/svg"
   xmlns="http://www.w3.org/2000/svg"
   xmlns:sodipodi="http://sodipodi.sourceforge.net/DTD/sodipodi-0.dtd"
   xmlns:inkscape="http://www.inkscape.org/namespaces/inkscape"
   version="1.1"
   x="0px"
   y="0px"
   viewBox="0 0 84.527863 84.527862"
   enable-background="new 0 0 100 100"
   xml:space="preserve"
   id="svg8"
   sodipodi:docname="icon_zapper.svg"
   inkscape:version="1.0.1 (3bc2e813f5, 2020-09-07)"
   width="84.527863"
   height="84.527863"><metadata
     id="metadata14"><rdf:RDF><cc:Work
         rdf:about=""><dc:format>image/svg+xml</dc:format><dc:type
           rdf:resource="http://purl.org/dc/dcmitype/StillImage" /><dc:title></dc:title></cc:Work></rdf:RDF></metadata><defs
     id="defs12" /><sodipodi:namedview
     pagecolor="#ffffff"
     bordercolor="#666666"
     borderopacity="1"
     objecttolerance="10"
     gridtolerance="10"
     guidetolerance="10"
     inkscape:pageopacity="0"
     inkscape:pageshadow="2"
     inkscape:window-width="1920"
     inkscape:window-height="1001"
     id="namedview10"
     showgrid="false"
     inkscape:zoom="6.64"
     inkscape:cx="41.591136"
     inkscape:cy="32.012613"
     inkscape:window-x="1911"
     inkscape:window-y="-9"
     inkscape:window-maximized="1"
     inkscape:current-layer="svg8"
     inkscape:document-rotation="0"
     fit-margin-top="0"
     fit-margin-left="0"
     fit-margin-right="0"
     fit-margin-bottom="0" /><path
     d="m 84.216136,30.188817 -3.25,-5.25 h -0.648 c -0.632,-1.035 -1.5,-1.688 -2.063,-2.25 -0.563,-0.562 -0.985,-0.167 -1.25,0 -1.125,0.707 -4.813,2.25 -4.813,2.25 0,0 -36.977,0 -37.414,0 l -0.521,-0.938 -0.75,0.521 -0.271,-0.542 -0.645,0.417 -0.25,-0.417 -0.771,0.5 -0.25,-0.479 -0.771,0.521 -0.25,-0.542 -0.75,0.521 -0.271,-0.521 -0.75,0.521 -0.25,-0.542 -0.75,0.542 -0.313,-0.521 -0.708,0.521 -0.333,-0.604 -0.771,0.604 -1.563,-0.875 h -11.186 c 0,0 -1.805,-1.668 -2.563,-1.625 -0.6210004,0.035 -1.9380004,1.563 -1.9380004,1.563 h -0.375 l -3.187,2.313 c 0,0 -1.063,0 -1.813,0 -0.75,0 -0.938,0.5 -0.938,0.5 0,0 -0.813,2.375 -0.813,2.875 0,0.5 1.438,2.438 2.125,3.313 0.687,0.875 0.875,1.063 0.875,1.063 h 2 c 0.563,0.938 0.938,0.813 0.938,0.813 0,0 5.2500004,-0.625 5.0000004,5.063 -0.25,5.688 -3.6240004,3.31 -8.2490004,11.748 -4.62499996,8.438 -3.62499996,12.25 -3.62499996,12.25 0,1.563 5.18799996,1 6.62499996,0.813 1.437,-0.187 8.6070004,-2.313 8.6070004,-2.313 0,0 1.018,0.062 0.268,-1.188 -0.75,-1.25 0.313,-2.75 0.313,-2.75 l 8.375,-15 h 4.375 c 0.625,0 2.438,1.313 1.5,-1.25 -0.938,-2.563 -0.25,-4.875 -0.25,-4.875 0,0 20.813,-1.75 22.813,-1.875 2,-0.125 1.938,-0.813 1.938,-0.813 l 0.936,-1.937 h 24.688 l 0.688,-1.125 c 0,0 1.75,0 2.938,0 1.188,0 0.311,-1 0.311,-1 z m -76.5000004,-0.763 c -0.684,0 -1.237,-0.554 -1.237,-1.237 0,-0.683 0.554,-1.237 1.237,-1.237 0.683,0 1.237,0.554 1.237,1.237 0,0.683 -0.553,1.237 -1.237,1.237 z m 18.0810004,1.238 c -0.684,0 -1.237,-0.554 -1.237,-1.237 0,-0.683 0.554,-1.237 1.237,-1.237 0.683,0 1.237,0.554 1.237,1.237 0,0.683 -0.553,1.237 -1.237,1.237 z m 25.921,1.877 c -0.684,0 -1.237,-0.554 -1.237,-1.237 0,-0.683 0.554,-1.237 1.237,-1.237 0.683,0 1.237,0.554 1.237,1.237 0,0.683 -0.553,1.237 -1.237,1.237 z"
     id="path2"
     style="fill:#ffffff" /></svg>
